<?xml version="1.0" encoding="utf-8"?>
<!-- Generator: Adobe Illustrator 22.1.0, SVG Export Plug-In . SVG Version: 6.00 Build 0)  -->
<svg version="1.1" id="Lager_1" xmlns="http://www.w3.org/2000/svg"  x="0px" y="0px"
	 viewBox="0 0 390.4 127.8" style="enable-background:new 0 0 390.4 127.8;" xml:space="preserve">
<style type="text/css">
	.st0{fill:#00ADE9;}
	.st1{fill:#4A4A49;}
</style>
<g>
	<path class="st0" d="M140.3,113l-35.7-94.7h27.1l22.2,62.8L176,18.3h27L167.3,113H140.3z"/>
	<path class="st0" d="M248.2,115.3c-27.5,0-50-22.4-50-50c0-27.5,22.4-50,50-50s50,22.4,50,50C298.1,92.9,275.7,115.3,248.2,115.3z
		 M248.2,40c-14,0-25.4,11.4-25.4,25.4s11.4,25.4,25.4,25.4c14,0,25.4-11.4,25.4-25.4S262.1,40,248.2,40z"/>
	<path class="st0" d="M108.2,60.1c-0.3-4.5-1.2-8.7-2.6-12.7c-0.1-0.2-0.1-0.4-0.2-0.6c-0.2-0.5-0.4-1.1-0.6-1.6
		c-0.4-1-0.7-1.6-0.7-1.6l0,0.2c-2.2-4.9-5.3-9.4-9.3-13.4c-9-9-20.2-13.5-33.8-13.5c-13.5,0-25.1,4.8-34.8,14.5
		C16.6,41,11.7,52.6,11.7,66.1c0,13.5,4.9,25.1,14.7,34.8c9.8,9.7,21.7,14.5,35.6,14.5c4.9,0,9.7-0.6,14.3-1.7
		c4.6-1.1,8.4-2.4,11.3-3.9c2.9-1.5,5.6-3.2,8.2-5c2.6-1.9,4.3-3.2,5-4l1.7-1.7L89.1,81.6l-2.7,2.9c-1.7,1.9-4.6,3.9-8.8,5.8
		c-4.2,1.9-8.7,2.9-13.6,2.9c-6.8,0-12.4-1.8-16.9-5.3c-4.5-3.6-7.2-7.9-8.2-13.1h68.3l0.5,0C108.5,69.4,108.5,64.4,108.2,60.1z
		 M38.8,56.5c1.6-5.2,4.3-9.3,8.2-12.5c3.9-3.2,8.6-4.8,14.1-4.8c5.5,0,10.2,1.6,14,4.9c3.8,3.3,6.2,7.4,7.2,12.4H38.8z"/>
	<g>
		<path class="st1" d="M303.3,37.8V15.4h9.1c1.8,0,3.4,0.6,4.6,1.8s1.9,2.6,1.9,4.1c0,0.9-0.2,1.7-0.6,2.5s-0.7,1.3-1.1,1.6
			l-0.6,0.5c0.1,0,0.2,0.1,0.4,0.2s0.4,0.3,0.8,0.6s0.7,0.7,1,1.1s0.6,0.9,0.8,1.5s0.4,1.3,0.4,2c0,1.8-0.7,3.3-2.1,4.6
			s-3.1,1.9-5.1,1.9H303.3z M306.8,18.5v6.1h5.6c0.9,0,1.6-0.3,2.2-0.9s0.9-1.3,0.9-2.2s-0.3-1.6-0.9-2.2s-1.3-0.9-2.2-0.9H306.8z
			 M312.9,34.8c1,0,1.9-0.4,2.6-1.1s1.1-1.6,1.1-2.6s-0.4-1.9-1.1-2.6s-1.6-1.1-2.6-1.1h-6.1v7.4H312.9z"/>
		<path class="st1" d="M341.4,34.6v3.2h-16.2V15.4h15.8v3.2h-12.3v5.9h9.8v3.2h-9.8v6.9H341.4z"/>
		<path class="st1" d="M360.6,15.4v3.2h-6.7v19.2h-3.5V18.6h-6.7v-3.2H360.6z"/>
		<path class="st1" d="M369.2,15.4h3.5l9.3,22.4h-3.7l-2.4-5.9H366l-2.4,5.9h-3.7L369.2,15.4z M367.3,28.7h7.4l-3.7-9.3L367.3,28.7z
			"/>
	</g>
</g>
</svg>
