<svg id="Lager_1" data-name="Lager 1" xmlns="http://www.w3.org/2000/svg" viewBox="0 0 835.36 137.55"><defs><style>.cls-1{fill:#00ade9;}</style></defs><title>Elvaco.Evo_logo_blue_CMYK</title><circle class="cls-1" cx="532.94" cy="127.09" r="10.46"/><path class="cls-1" d="M133.9,138.13H107.77V2.88H133.9Z" transform="translate(-3.42 -2.88)"/><path class="cls-1" d="M177.26,138.13,141.51,43.44h27.07l22.17,62.81L213,43.44h27l-35.65,94.69Z" transform="translate(-3.42 -2.88)"/><path class="cls-1" d="M294.38,128.51c-.75.88-1.81,2-3.16,3.25s-4.29,3-8.82,5.1A33.22,33.22,0,0,1,268.26,140q-14.16,0-23-7.88T236.38,113q0-11.6,7.45-19.33t20.56-10.09l30-5.38A12.31,12.31,0,0,0,290,68.52Q285.7,64.76,278,64.75a27.83,27.83,0,0,0-11.7,2.41q-5.28,2.4-7.45,5l-2.17,2.26L242.22,59.94l1.56-2a44.9,44.9,0,0,1,4.43-4.38,46.46,46.46,0,0,1,7.5-5.52,50.22,50.22,0,0,1,10.66-4.43,45.76,45.76,0,0,1,13.49-2q17.91,0,29.23,10.71t11.32,26.92v58.95h-26Zm-5.23-15.33q5.24-5.61,5.23-15.61V94.65l-21.22,3.87q-10.67,1.7-10.66,10.65,0,9.63,12.55,9.62Q283.91,118.79,289.15,113.18Z" transform="translate(-3.42 -2.88)"/><path class="cls-1" d="M343.24,56.31a49.92,49.92,0,0,1,36-14.76,47.8,47.8,0,0,1,14,2,42.39,42.39,0,0,1,10.89,4.81A72.28,72.28,0,0,1,411.71,54a31.49,31.49,0,0,1,4.81,4.9l1.41,2L401.52,77.3a27.54,27.54,0,0,0-2.5-3.49q-1.74-2.18-7.54-5.62a23.94,23.94,0,0,0-29.9,4.2,25.51,25.51,0,0,0-7.4,18.44,25.43,25.43,0,0,0,7.45,18.44,23.81,23.81,0,0,0,17.63,7.64,25.55,25.55,0,0,0,12.22-3.11,29.08,29.08,0,0,0,8.44-6.23l2.55-3.21,15.46,16.42-1.55,2.12a38.93,38.93,0,0,1-4.58,4.62,48.76,48.76,0,0,1-7.73,5.75,51.31,51.31,0,0,1-10.8,4.62,45.62,45.62,0,0,1-14,2.13,49.92,49.92,0,0,1-36-14.76Q328,110.48,328.05,90.78T343.24,56.31Z" transform="translate(-3.42 -2.88)"/><path class="cls-1" d="M470.44,140.43a50,50,0,1,1,49.95-49.95A50,50,0,0,1,470.44,140.43Zm0-75.32A25.37,25.37,0,1,0,495.8,90.48,25.4,25.4,0,0,0,470.44,65.11Z" transform="translate(-3.42 -2.88)"/><path class="cls-1" d="M99.82,84.8a48.89,48.89,0,0,0-2.57-12.67c-.07-.21-.14-.4-.21-.6-.19-.52-.36-1-.57-1.56-.41-1-.69-1.64-.69-1.64v.17a45.23,45.23,0,0,0-9.28-13.41Q73,41.55,52.74,41.55A47.58,47.58,0,0,0,17.94,56,47.31,47.31,0,0,0,3.42,90.78q0,20.28,14.71,34.76A48.85,48.85,0,0,0,53.69,140,60,60,0,0,0,68,138.32a52.68,52.68,0,0,0,11.27-3.92,60.45,60.45,0,0,0,8.2-5,51.89,51.89,0,0,0,5-4l1.74-1.75L80.76,106.25,78,109.17Q75.47,112.1,69.2,115a32.39,32.39,0,0,1-13.63,2.87q-10.18,0-16.88-5.33a21.63,21.63,0,0,1-8.2-13.06H99.3A57.86,57.86,0,0,0,99.82,84.8ZM30.49,81.16a25.59,25.59,0,0,1,8.15-12.54,21.36,21.36,0,0,1,14.1-4.81,20.73,20.73,0,0,1,14,4.9A21.56,21.56,0,0,1,74,81.16Z" transform="translate(-3.42 -2.88)"/><path class="cls-1" d="M680.93,138.13,645.18,43.44h27.07l22.16,62.81,22.26-62.81h27L708,138.13Z" transform="translate(-3.42 -2.88)"/><path class="cls-1" d="M788.82,140.43a50,50,0,1,1,49.95-49.95A50,50,0,0,1,788.82,140.43Zm0-75.32a25.37,25.37,0,1,0,25.36,25.37A25.4,25.4,0,0,0,788.82,65.11Z" transform="translate(-3.42 -2.88)"/><path class="cls-1" d="M648.81,85.22a48.4,48.4,0,0,0-2.58-12.67c-.07-.21-.13-.4-.2-.6-.19-.52-.36-1-.57-1.56-.41-1-.69-1.64-.69-1.64v.17A45.4,45.4,0,0,0,635.5,55.5Q622,42,601.73,42a47.51,47.51,0,0,0-34.8,14.48A47.32,47.32,0,0,0,552.4,91.2q0,20.28,14.72,34.76a48.84,48.84,0,0,0,35.55,14.47A59.91,59.91,0,0,0,617,138.74a53,53,0,0,0,11.27-3.92,61,61,0,0,0,8.21-5,51.63,51.63,0,0,0,5-4l1.75-1.75-13.49-17.35L627,109.59q-2.55,2.93-8.82,5.8a32.28,32.28,0,0,1-13.63,2.88q-10.18,0-16.88-5.33a21.68,21.68,0,0,1-8.21-13.06h68.82A58.33,58.33,0,0,0,648.81,85.22Zm-69.34-3.64A25.45,25.45,0,0,1,587.63,69a21.36,21.36,0,0,1,14.1-4.81,20.76,20.76,0,0,1,14,4.9A21.49,21.49,0,0,1,623,81.58Z" transform="translate(-3.42 -2.88)"/></svg>